<mxfile host="app.diagrams.net" modified="2022-10-20T17:29:48.894Z" agent="5.0 (Windows NT 10.0; Win64; x64) AppleWebKit/537.36 (KHTML, like Gecko) Chrome/106.0.0.0 Safari/537.36" etag="EndXhUARGvAGwexBdAVT" version="20.4.2" type="github">
  <diagram id="KtQjtxPD_mTvZEKWzP8p" name="Page-1">
    <mxGraphModel dx="974" dy="561" grid="0" gridSize="10" guides="1" tooltips="1" connect="1" arrows="1" fold="1" page="1" pageScale="1" pageWidth="850" pageHeight="1100" math="0" shadow="0">
      <root>
        <mxCell id="0" />
        <mxCell id="1" parent="0" />
        <mxCell id="1E0Fo5VaGPv6tbUZggx8-1" value="" style="endArrow=none;html=1;rounded=0;strokeWidth=2;startArrow=none;" parent="1" source="1E0Fo5VaGPv6tbUZggx8-27" edge="1">
          <mxGeometry width="50" height="50" relative="1" as="geometry">
            <mxPoint x="200" y="160" as="sourcePoint" />
            <mxPoint x="480" y="160" as="targetPoint" />
          </mxGeometry>
        </mxCell>
        <mxCell id="1E0Fo5VaGPv6tbUZggx8-3" value="" style="pointerEvents=1;verticalLabelPosition=bottom;shadow=0;dashed=0;align=center;html=1;verticalAlign=top;shape=mxgraph.electrical.capacitors.capacitor_1;direction=south;" parent="1" vertex="1">
          <mxGeometry x="225" y="160" width="30" height="80" as="geometry" />
        </mxCell>
        <mxCell id="1E0Fo5VaGPv6tbUZggx8-4" value="" style="endArrow=none;html=1;rounded=0;strokeWidth=2;startArrow=none;" parent="1" source="1E0Fo5VaGPv6tbUZggx8-21" edge="1">
          <mxGeometry width="50" height="50" relative="1" as="geometry">
            <mxPoint x="200" y="240" as="sourcePoint" />
            <mxPoint x="314" y="240" as="targetPoint" />
          </mxGeometry>
        </mxCell>
        <mxCell id="1E0Fo5VaGPv6tbUZggx8-5" value="" style="pointerEvents=1;verticalLabelPosition=bottom;shadow=0;dashed=0;align=center;html=1;verticalAlign=top;shape=mxgraph.electrical.capacitors.capacitor_1;direction=south;" parent="1" vertex="1">
          <mxGeometry x="225" y="240" width="30" height="80" as="geometry" />
        </mxCell>
        <mxCell id="1E0Fo5VaGPv6tbUZggx8-6" value="" style="endArrow=none;html=1;rounded=0;strokeWidth=2;startArrow=none;" parent="1" source="1E0Fo5VaGPv6tbUZggx8-24" edge="1">
          <mxGeometry width="50" height="50" relative="1" as="geometry">
            <mxPoint x="200" y="320" as="sourcePoint" />
            <mxPoint x="480" y="320" as="targetPoint" />
          </mxGeometry>
        </mxCell>
        <mxCell id="1E0Fo5VaGPv6tbUZggx8-8" value="Cy1=1uF" style="text;html=1;strokeColor=none;fillColor=none;align=center;verticalAlign=middle;whiteSpace=wrap;rounded=0;" parent="1" vertex="1">
          <mxGeometry x="260" y="185" width="60" height="30" as="geometry" />
        </mxCell>
        <mxCell id="1E0Fo5VaGPv6tbUZggx8-9" value="Cy2=1uF" style="text;html=1;strokeColor=none;fillColor=none;align=center;verticalAlign=middle;whiteSpace=wrap;rounded=0;" parent="1" vertex="1">
          <mxGeometry x="260" y="265" width="60" height="30" as="geometry" />
        </mxCell>
        <mxCell id="1E0Fo5VaGPv6tbUZggx8-10" value="HV+" style="text;html=1;strokeColor=none;fillColor=none;align=center;verticalAlign=middle;whiteSpace=wrap;rounded=0;" parent="1" vertex="1">
          <mxGeometry x="420" y="130" width="60" height="30" as="geometry" />
        </mxCell>
        <mxCell id="1E0Fo5VaGPv6tbUZggx8-11" value="HV-" style="text;html=1;strokeColor=none;fillColor=none;align=center;verticalAlign=middle;whiteSpace=wrap;rounded=0;" parent="1" vertex="1">
          <mxGeometry x="420" y="320" width="60" height="30" as="geometry" />
        </mxCell>
        <mxCell id="1E0Fo5VaGPv6tbUZggx8-12" value="" style="pointerEvents=1;verticalLabelPosition=bottom;shadow=0;dashed=0;align=center;html=1;verticalAlign=top;shape=mxgraph.electrical.signal_sources.signal_ground;" parent="1" vertex="1">
          <mxGeometry x="299" y="240" width="30" height="30" as="geometry" />
        </mxCell>
        <mxCell id="1E0Fo5VaGPv6tbUZggx8-13" value="" style="pointerEvents=1;verticalLabelPosition=bottom;shadow=0;dashed=0;align=center;html=1;verticalAlign=top;shape=mxgraph.electrical.capacitors.capacitor_1;direction=south;" parent="1" vertex="1">
          <mxGeometry x="435" y="160" width="30" height="160" as="geometry" />
        </mxCell>
        <mxCell id="1E0Fo5VaGPv6tbUZggx8-15" value="DC-link" style="text;html=1;strokeColor=none;fillColor=none;align=center;verticalAlign=middle;whiteSpace=wrap;rounded=0;" parent="1" vertex="1">
          <mxGeometry x="463" y="215" width="60" height="30" as="geometry" />
        </mxCell>
        <mxCell id="1E0Fo5VaGPv6tbUZggx8-16" value="1" style="ellipse;whiteSpace=wrap;html=1;aspect=fixed;fillColor=#d5e8d4;strokeColor=#82b366;" parent="1" vertex="1">
          <mxGeometry x="180" y="90" width="30" height="30" as="geometry" />
        </mxCell>
        <mxCell id="1E0Fo5VaGPv6tbUZggx8-17" value="" style="endArrow=none;html=1;rounded=0;strokeWidth=1;" parent="1" target="1E0Fo5VaGPv6tbUZggx8-18" edge="1">
          <mxGeometry width="50" height="50" relative="1" as="geometry">
            <mxPoint x="220" y="160" as="sourcePoint" />
            <mxPoint x="200" y="120" as="targetPoint" />
          </mxGeometry>
        </mxCell>
        <mxCell id="1E0Fo5VaGPv6tbUZggx8-18" value="" style="shape=waypoint;sketch=0;fillStyle=solid;size=6;pointerEvents=1;points=[];fillColor=none;resizable=0;rotatable=0;perimeter=centerPerimeter;snapToPoint=1;" parent="1" vertex="1">
          <mxGeometry x="179.9999999999999" y="100" width="40" height="40" as="geometry" />
        </mxCell>
        <mxCell id="1E0Fo5VaGPv6tbUZggx8-19" value="" style="shape=waypoint;sketch=0;fillStyle=solid;size=6;pointerEvents=1;points=[];fillColor=none;resizable=0;rotatable=0;perimeter=centerPerimeter;snapToPoint=1;" parent="1" vertex="1">
          <mxGeometry x="200" y="140" width="40" height="40" as="geometry" />
        </mxCell>
        <mxCell id="1E0Fo5VaGPv6tbUZggx8-20" value="" style="endArrow=none;html=1;rounded=0;strokeWidth=2;" parent="1" target="1E0Fo5VaGPv6tbUZggx8-19" edge="1">
          <mxGeometry width="50" height="50" relative="1" as="geometry">
            <mxPoint x="199.9999999999999" y="160" as="sourcePoint" />
            <mxPoint x="480" y="160" as="targetPoint" />
          </mxGeometry>
        </mxCell>
        <mxCell id="1E0Fo5VaGPv6tbUZggx8-21" value="" style="shape=waypoint;sketch=0;fillStyle=solid;size=6;pointerEvents=1;points=[];fillColor=none;resizable=0;rotatable=0;perimeter=centerPerimeter;snapToPoint=1;" parent="1" vertex="1">
          <mxGeometry x="220" y="220" width="40" height="40" as="geometry" />
        </mxCell>
        <mxCell id="1E0Fo5VaGPv6tbUZggx8-22" value="" style="endArrow=none;html=1;rounded=0;strokeWidth=2;startArrow=none;" parent="1" source="1E0Fo5VaGPv6tbUZggx8-37" target="1E0Fo5VaGPv6tbUZggx8-21" edge="1">
          <mxGeometry width="50" height="50" relative="1" as="geometry">
            <mxPoint x="199.9999999999999" y="240" as="sourcePoint" />
            <mxPoint x="360" y="240" as="targetPoint" />
          </mxGeometry>
        </mxCell>
        <mxCell id="1E0Fo5VaGPv6tbUZggx8-23" value="" style="shape=waypoint;sketch=0;fillStyle=solid;size=6;pointerEvents=1;points=[];fillColor=none;resizable=0;rotatable=0;perimeter=centerPerimeter;snapToPoint=1;" parent="1" vertex="1">
          <mxGeometry x="220" y="300" width="40" height="40" as="geometry" />
        </mxCell>
        <mxCell id="1E0Fo5VaGPv6tbUZggx8-24" value="" style="shape=waypoint;sketch=0;fillStyle=solid;size=6;pointerEvents=1;points=[];fillColor=none;resizable=0;rotatable=0;perimeter=centerPerimeter;snapToPoint=1;" parent="1" vertex="1">
          <mxGeometry x="430" y="300" width="40" height="40" as="geometry" />
        </mxCell>
        <mxCell id="1E0Fo5VaGPv6tbUZggx8-25" value="" style="endArrow=none;html=1;rounded=0;strokeWidth=2;" parent="1" target="1E0Fo5VaGPv6tbUZggx8-24" edge="1">
          <mxGeometry width="50" height="50" relative="1" as="geometry">
            <mxPoint x="199.9999999999999" y="319.9999999999999" as="sourcePoint" />
            <mxPoint x="480" y="319.9999999999999" as="targetPoint" />
          </mxGeometry>
        </mxCell>
        <mxCell id="1E0Fo5VaGPv6tbUZggx8-26" value="" style="shape=waypoint;sketch=0;fillStyle=solid;size=6;pointerEvents=1;points=[];fillColor=none;resizable=0;rotatable=0;perimeter=centerPerimeter;snapToPoint=1;" parent="1" vertex="1">
          <mxGeometry x="430" y="140" width="40" height="40" as="geometry" />
        </mxCell>
        <mxCell id="1E0Fo5VaGPv6tbUZggx8-27" value="" style="shape=waypoint;sketch=0;fillStyle=solid;size=6;pointerEvents=1;points=[];fillColor=none;resizable=0;rotatable=0;perimeter=centerPerimeter;snapToPoint=1;" parent="1" vertex="1">
          <mxGeometry x="220" y="140" width="40" height="40" as="geometry" />
        </mxCell>
        <mxCell id="1E0Fo5VaGPv6tbUZggx8-28" value="" style="endArrow=none;html=1;rounded=0;strokeWidth=2;startArrow=none;" parent="1" source="1E0Fo5VaGPv6tbUZggx8-19" target="1E0Fo5VaGPv6tbUZggx8-27" edge="1">
          <mxGeometry width="50" height="50" relative="1" as="geometry">
            <mxPoint x="219.9999999999999" y="160" as="sourcePoint" />
            <mxPoint x="480" y="160" as="targetPoint" />
          </mxGeometry>
        </mxCell>
        <mxCell id="1E0Fo5VaGPv6tbUZggx8-31" value="2" style="ellipse;whiteSpace=wrap;html=1;aspect=fixed;fillColor=#d5e8d4;strokeColor=#82b366;" parent="1" vertex="1">
          <mxGeometry x="175" y="350" width="30" height="30" as="geometry" />
        </mxCell>
        <mxCell id="1E0Fo5VaGPv6tbUZggx8-32" value="" style="shape=waypoint;sketch=0;fillStyle=solid;size=6;pointerEvents=1;points=[];fillColor=none;resizable=0;rotatable=0;perimeter=centerPerimeter;snapToPoint=1;" parent="1" vertex="1">
          <mxGeometry x="179.9999999999999" y="330" width="40" height="40" as="geometry" />
        </mxCell>
        <mxCell id="1E0Fo5VaGPv6tbUZggx8-33" value="" style="endArrow=none;html=1;rounded=0;strokeWidth=1;exitX=0.41;exitY=0.544;exitDx=0;exitDy=0;exitPerimeter=0;" parent="1" source="1E0Fo5VaGPv6tbUZggx8-32" target="1E0Fo5VaGPv6tbUZggx8-34" edge="1">
          <mxGeometry width="50" height="50" relative="1" as="geometry">
            <mxPoint x="170" y="370" as="sourcePoint" />
            <mxPoint x="220" y="320" as="targetPoint" />
          </mxGeometry>
        </mxCell>
        <mxCell id="1E0Fo5VaGPv6tbUZggx8-34" value="" style="shape=waypoint;sketch=0;fillStyle=solid;size=6;pointerEvents=1;points=[];fillColor=none;resizable=0;rotatable=0;perimeter=centerPerimeter;snapToPoint=1;" parent="1" vertex="1">
          <mxGeometry x="199.9999999999999" y="299.9999999999999" width="40" height="40" as="geometry" />
        </mxCell>
        <mxCell id="1E0Fo5VaGPv6tbUZggx8-35" value="3" style="ellipse;whiteSpace=wrap;html=1;aspect=fixed;fillColor=#d5e8d4;strokeColor=#82b366;" parent="1" vertex="1">
          <mxGeometry x="130" y="225" width="30" height="30" as="geometry" />
        </mxCell>
        <mxCell id="1E0Fo5VaGPv6tbUZggx8-37" value="" style="shape=waypoint;sketch=0;fillStyle=solid;size=6;pointerEvents=1;points=[];fillColor=none;resizable=0;rotatable=0;perimeter=centerPerimeter;snapToPoint=1;" parent="1" vertex="1">
          <mxGeometry x="180" y="220" width="40" height="40" as="geometry" />
        </mxCell>
        <mxCell id="1E0Fo5VaGPv6tbUZggx8-39" value="" style="endArrow=none;html=1;rounded=0;strokeWidth=2;" parent="1" target="1E0Fo5VaGPv6tbUZggx8-37" edge="1">
          <mxGeometry width="50" height="50" relative="1" as="geometry">
            <mxPoint x="199.9999999999999" y="240" as="sourcePoint" />
            <mxPoint x="239.9999999999999" y="240" as="targetPoint" />
          </mxGeometry>
        </mxCell>
        <mxCell id="1E0Fo5VaGPv6tbUZggx8-41" value="" style="endArrow=none;html=1;rounded=0;strokeWidth=1;startArrow=none;" parent="1" source="1E0Fo5VaGPv6tbUZggx8-42" target="1E0Fo5VaGPv6tbUZggx8-37" edge="1">
          <mxGeometry width="50" height="50" relative="1" as="geometry">
            <mxPoint x="160" y="240" as="sourcePoint" />
            <mxPoint x="210" y="190" as="targetPoint" />
          </mxGeometry>
        </mxCell>
        <mxCell id="1E0Fo5VaGPv6tbUZggx8-42" value="" style="shape=waypoint;sketch=0;fillStyle=solid;size=6;pointerEvents=1;points=[];fillColor=none;resizable=0;rotatable=0;perimeter=centerPerimeter;snapToPoint=1;" parent="1" vertex="1">
          <mxGeometry x="140" y="220" width="40" height="40" as="geometry" />
        </mxCell>
        <mxCell id="1E0Fo5VaGPv6tbUZggx8-43" value="" style="endArrow=none;html=1;rounded=0;strokeWidth=1;" parent="1" target="1E0Fo5VaGPv6tbUZggx8-42" edge="1">
          <mxGeometry width="50" height="50" relative="1" as="geometry">
            <mxPoint x="159.9999999999999" y="240" as="sourcePoint" />
            <mxPoint x="199.9999999999999" y="240" as="targetPoint" />
          </mxGeometry>
        </mxCell>
        <mxCell id="1E0Fo5VaGPv6tbUZggx8-44" value="550uF" style="text;html=1;strokeColor=none;fillColor=none;align=center;verticalAlign=middle;whiteSpace=wrap;rounded=0;" parent="1" vertex="1">
          <mxGeometry x="463" y="240" width="60" height="30" as="geometry" />
        </mxCell>
        <mxCell id="1E0Fo5VaGPv6tbUZggx8-45" value="" style="pointerEvents=1;verticalLabelPosition=bottom;shadow=0;dashed=0;align=center;html=1;verticalAlign=top;shape=mxgraph.electrical.capacitors.capacitor_1;direction=south;" parent="1" vertex="1">
          <mxGeometry x="341" y="160" width="18" height="160" as="geometry" />
        </mxCell>
        <mxCell id="1E0Fo5VaGPv6tbUZggx8-46" value="Cx" style="text;html=1;strokeColor=none;fillColor=none;align=center;verticalAlign=middle;whiteSpace=wrap;rounded=0;" parent="1" vertex="1">
          <mxGeometry x="345" y="215" width="60" height="30" as="geometry" />
        </mxCell>
        <mxCell id="1E0Fo5VaGPv6tbUZggx8-47" value="1uF" style="text;html=1;strokeColor=none;fillColor=none;align=center;verticalAlign=middle;whiteSpace=wrap;rounded=0;" parent="1" vertex="1">
          <mxGeometry x="345" y="240" width="60" height="30" as="geometry" />
        </mxCell>
        <mxCell id="tcSHHRSE1zN9RFMdAJvO-1" value="" style="endArrow=none;html=1;rounded=0;strokeWidth=2;startArrow=none;" edge="1" parent="1" source="tcSHHRSE1zN9RFMdAJvO-29">
          <mxGeometry width="50" height="50" relative="1" as="geometry">
            <mxPoint x="230" y="540" as="sourcePoint" />
            <mxPoint x="510" y="540" as="targetPoint" />
          </mxGeometry>
        </mxCell>
        <mxCell id="tcSHHRSE1zN9RFMdAJvO-2" value="" style="pointerEvents=1;verticalLabelPosition=bottom;shadow=0;dashed=0;align=center;html=1;verticalAlign=top;shape=mxgraph.electrical.capacitors.capacitor_1;direction=south;" vertex="1" parent="1">
          <mxGeometry x="255" y="540" width="30" height="80" as="geometry" />
        </mxCell>
        <mxCell id="tcSHHRSE1zN9RFMdAJvO-3" value="" style="endArrow=none;html=1;rounded=0;strokeWidth=2;startArrow=none;entryX=1;entryY=0.5;entryDx=0;entryDy=0;entryPerimeter=0;" edge="1" parent="1" source="tcSHHRSE1zN9RFMdAJvO-31" target="tcSHHRSE1zN9RFMdAJvO-27">
          <mxGeometry width="50" height="50" relative="1" as="geometry">
            <mxPoint x="230" y="620" as="sourcePoint" />
            <mxPoint x="344" y="620" as="targetPoint" />
          </mxGeometry>
        </mxCell>
        <mxCell id="tcSHHRSE1zN9RFMdAJvO-4" value="Cy1=1uF" style="text;html=1;strokeColor=none;fillColor=none;align=center;verticalAlign=middle;whiteSpace=wrap;rounded=0;" vertex="1" parent="1">
          <mxGeometry x="290" y="565" width="60" height="30" as="geometry" />
        </mxCell>
        <mxCell id="tcSHHRSE1zN9RFMdAJvO-5" value="HV+" style="text;html=1;strokeColor=none;fillColor=none;align=center;verticalAlign=middle;whiteSpace=wrap;rounded=0;" vertex="1" parent="1">
          <mxGeometry x="450" y="510" width="60" height="30" as="geometry" />
        </mxCell>
        <mxCell id="tcSHHRSE1zN9RFMdAJvO-6" value="" style="pointerEvents=1;verticalLabelPosition=bottom;shadow=0;dashed=0;align=center;html=1;verticalAlign=top;shape=mxgraph.electrical.signal_sources.signal_ground;" vertex="1" parent="1">
          <mxGeometry x="329" y="620" width="30" height="30" as="geometry" />
        </mxCell>
        <mxCell id="tcSHHRSE1zN9RFMdAJvO-8" value="1" style="ellipse;whiteSpace=wrap;html=1;aspect=fixed;fillColor=#d5e8d4;strokeColor=#82b366;" vertex="1" parent="1">
          <mxGeometry x="210" y="470" width="30" height="30" as="geometry" />
        </mxCell>
        <mxCell id="tcSHHRSE1zN9RFMdAJvO-9" value="" style="endArrow=none;html=1;rounded=0;strokeWidth=1;" edge="1" parent="1" target="tcSHHRSE1zN9RFMdAJvO-10">
          <mxGeometry width="50" height="50" relative="1" as="geometry">
            <mxPoint x="250" y="540" as="sourcePoint" />
            <mxPoint x="230" y="500" as="targetPoint" />
          </mxGeometry>
        </mxCell>
        <mxCell id="tcSHHRSE1zN9RFMdAJvO-10" value="" style="shape=waypoint;sketch=0;fillStyle=solid;size=6;pointerEvents=1;points=[];fillColor=none;resizable=0;rotatable=0;perimeter=centerPerimeter;snapToPoint=1;" vertex="1" parent="1">
          <mxGeometry x="209.9999999999999" y="480" width="40" height="40" as="geometry" />
        </mxCell>
        <mxCell id="tcSHHRSE1zN9RFMdAJvO-11" value="" style="shape=waypoint;sketch=0;fillStyle=solid;size=6;pointerEvents=1;points=[];fillColor=none;resizable=0;rotatable=0;perimeter=centerPerimeter;snapToPoint=1;" vertex="1" parent="1">
          <mxGeometry x="230" y="520" width="40" height="40" as="geometry" />
        </mxCell>
        <mxCell id="tcSHHRSE1zN9RFMdAJvO-12" value="" style="endArrow=none;html=1;rounded=0;strokeWidth=2;" edge="1" parent="1" target="tcSHHRSE1zN9RFMdAJvO-11">
          <mxGeometry width="50" height="50" relative="1" as="geometry">
            <mxPoint x="230" y="540" as="sourcePoint" />
            <mxPoint x="510" y="540" as="targetPoint" />
          </mxGeometry>
        </mxCell>
        <mxCell id="tcSHHRSE1zN9RFMdAJvO-13" value="" style="shape=waypoint;sketch=0;fillStyle=solid;size=6;pointerEvents=1;points=[];fillColor=none;resizable=0;rotatable=0;perimeter=centerPerimeter;snapToPoint=1;" vertex="1" parent="1">
          <mxGeometry x="250" y="600" width="40" height="40" as="geometry" />
        </mxCell>
        <mxCell id="tcSHHRSE1zN9RFMdAJvO-14" value="" style="endArrow=none;html=1;rounded=0;strokeWidth=2;startArrow=none;" edge="1" parent="1" source="tcSHHRSE1zN9RFMdAJvO-19" target="tcSHHRSE1zN9RFMdAJvO-13">
          <mxGeometry width="50" height="50" relative="1" as="geometry">
            <mxPoint x="229.9999999999999" y="620" as="sourcePoint" />
            <mxPoint x="390" y="620" as="targetPoint" />
          </mxGeometry>
        </mxCell>
        <mxCell id="tcSHHRSE1zN9RFMdAJvO-15" value="" style="shape=waypoint;sketch=0;fillStyle=solid;size=6;pointerEvents=1;points=[];fillColor=none;resizable=0;rotatable=0;perimeter=centerPerimeter;snapToPoint=1;" vertex="1" parent="1">
          <mxGeometry x="460" y="520" width="40" height="40" as="geometry" />
        </mxCell>
        <mxCell id="tcSHHRSE1zN9RFMdAJvO-16" value="" style="shape=waypoint;sketch=0;fillStyle=solid;size=6;pointerEvents=1;points=[];fillColor=none;resizable=0;rotatable=0;perimeter=centerPerimeter;snapToPoint=1;" vertex="1" parent="1">
          <mxGeometry x="250" y="520" width="40" height="40" as="geometry" />
        </mxCell>
        <mxCell id="tcSHHRSE1zN9RFMdAJvO-17" value="" style="endArrow=none;html=1;rounded=0;strokeWidth=2;startArrow=none;" edge="1" parent="1" source="tcSHHRSE1zN9RFMdAJvO-11" target="tcSHHRSE1zN9RFMdAJvO-16">
          <mxGeometry width="50" height="50" relative="1" as="geometry">
            <mxPoint x="249.9999999999999" y="540" as="sourcePoint" />
            <mxPoint x="510" y="540" as="targetPoint" />
          </mxGeometry>
        </mxCell>
        <mxCell id="tcSHHRSE1zN9RFMdAJvO-18" value="3" style="ellipse;whiteSpace=wrap;html=1;aspect=fixed;fillColor=#d5e8d4;strokeColor=#82b366;" vertex="1" parent="1">
          <mxGeometry x="160" y="605" width="30" height="30" as="geometry" />
        </mxCell>
        <mxCell id="tcSHHRSE1zN9RFMdAJvO-19" value="" style="shape=waypoint;sketch=0;fillStyle=solid;size=6;pointerEvents=1;points=[];fillColor=none;resizable=0;rotatable=0;perimeter=centerPerimeter;snapToPoint=1;" vertex="1" parent="1">
          <mxGeometry x="210" y="600" width="40" height="40" as="geometry" />
        </mxCell>
        <mxCell id="tcSHHRSE1zN9RFMdAJvO-20" value="" style="endArrow=none;html=1;rounded=0;strokeWidth=2;" edge="1" parent="1" target="tcSHHRSE1zN9RFMdAJvO-19">
          <mxGeometry width="50" height="50" relative="1" as="geometry">
            <mxPoint x="230" y="620" as="sourcePoint" />
            <mxPoint x="269.9999999999999" y="620" as="targetPoint" />
          </mxGeometry>
        </mxCell>
        <mxCell id="tcSHHRSE1zN9RFMdAJvO-21" value="" style="endArrow=none;html=1;rounded=0;strokeWidth=1;startArrow=none;" edge="1" parent="1" source="tcSHHRSE1zN9RFMdAJvO-22" target="tcSHHRSE1zN9RFMdAJvO-19">
          <mxGeometry width="50" height="50" relative="1" as="geometry">
            <mxPoint x="190" y="620" as="sourcePoint" />
            <mxPoint x="240" y="570" as="targetPoint" />
          </mxGeometry>
        </mxCell>
        <mxCell id="tcSHHRSE1zN9RFMdAJvO-22" value="" style="shape=waypoint;sketch=0;fillStyle=solid;size=6;pointerEvents=1;points=[];fillColor=none;resizable=0;rotatable=0;perimeter=centerPerimeter;snapToPoint=1;" vertex="1" parent="1">
          <mxGeometry x="170" y="600" width="40" height="40" as="geometry" />
        </mxCell>
        <mxCell id="tcSHHRSE1zN9RFMdAJvO-23" value="" style="endArrow=none;html=1;rounded=0;strokeWidth=1;" edge="1" parent="1" target="tcSHHRSE1zN9RFMdAJvO-22">
          <mxGeometry width="50" height="50" relative="1" as="geometry">
            <mxPoint x="190" y="620" as="sourcePoint" />
            <mxPoint x="229.9999999999999" y="620" as="targetPoint" />
          </mxGeometry>
        </mxCell>
        <mxCell id="tcSHHRSE1zN9RFMdAJvO-27" value="" style="pointerEvents=1;verticalLabelPosition=bottom;shadow=0;dashed=0;align=center;html=1;verticalAlign=top;shape=mxgraph.electrical.capacitors.capacitor_1;direction=south;" vertex="1" parent="1">
          <mxGeometry x="425" y="540" width="30" height="80" as="geometry" />
        </mxCell>
        <mxCell id="tcSHHRSE1zN9RFMdAJvO-29" value="" style="pointerEvents=1;verticalLabelPosition=bottom;shadow=0;dashed=0;align=center;html=1;verticalAlign=top;shape=mxgraph.electrical.resistors.resistor_1;strokeWidth=2;" vertex="1" parent="1">
          <mxGeometry x="320" y="530" width="60" height="20" as="geometry" />
        </mxCell>
        <mxCell id="tcSHHRSE1zN9RFMdAJvO-30" value="" style="endArrow=none;html=1;rounded=0;strokeWidth=2;startArrow=none;" edge="1" parent="1" source="tcSHHRSE1zN9RFMdAJvO-16" target="tcSHHRSE1zN9RFMdAJvO-29">
          <mxGeometry width="50" height="50" relative="1" as="geometry">
            <mxPoint x="270" y="540" as="sourcePoint" />
            <mxPoint x="510" y="540" as="targetPoint" />
          </mxGeometry>
        </mxCell>
        <mxCell id="tcSHHRSE1zN9RFMdAJvO-31" value="" style="shape=waypoint;sketch=0;fillStyle=solid;size=6;pointerEvents=1;points=[];fillColor=none;resizable=0;rotatable=0;perimeter=centerPerimeter;snapToPoint=1;strokeWidth=2;" vertex="1" parent="1">
          <mxGeometry x="324" y="600" width="40" height="40" as="geometry" />
        </mxCell>
        <mxCell id="tcSHHRSE1zN9RFMdAJvO-32" value="" style="endArrow=none;html=1;rounded=0;strokeWidth=2;startArrow=none;entryDx=0;entryDy=0;entryPerimeter=0;" edge="1" parent="1" source="tcSHHRSE1zN9RFMdAJvO-13" target="tcSHHRSE1zN9RFMdAJvO-31">
          <mxGeometry width="50" height="50" relative="1" as="geometry">
            <mxPoint x="270" y="620" as="sourcePoint" />
            <mxPoint x="440" y="620" as="targetPoint" />
          </mxGeometry>
        </mxCell>
        <mxCell id="tcSHHRSE1zN9RFMdAJvO-33" value="Cy2=1uF" style="text;html=1;strokeColor=none;fillColor=none;align=center;verticalAlign=middle;whiteSpace=wrap;rounded=0;" vertex="1" parent="1">
          <mxGeometry x="460" y="565" width="60" height="30" as="geometry" />
        </mxCell>
        <mxCell id="tcSHHRSE1zN9RFMdAJvO-34" value="Z_C = 0.29 Ohm" style="text;html=1;strokeColor=none;fillColor=none;align=center;verticalAlign=middle;whiteSpace=wrap;rounded=0;" vertex="1" parent="1">
          <mxGeometry x="305" y="490" width="100" height="30" as="geometry" />
        </mxCell>
      </root>
    </mxGraphModel>
  </diagram>
</mxfile>
